Coordinates
version=1
nRows=16
nColumns=22
inDegrees=yes

Units are S.I. units (second, meters, Newtons, ...)
If the header above contains a line with 'inDegrees', this indicates whether rotational values are in degrees (yes) or radians (no).

endheader
time	pelvis_tilt	pelvis_list	pelvis_rotation	pelvis_tx	pelvis_ty	pelvis_tz	hip_flexion_r	hip_adduction_r	hip_rotation_r	knee_angle_r	ankle_angle_r	subtalar_angle_r	hip_flexion_l	hip_adduction_l	hip_rotation_l	knee_angle_l	ankle_angle_l	subtalar_angle_l	lumbar_extension	lumbar_bending	lumbar_rotation
      4.48000000	     -1.03973772	     -2.95238925	    -78.46847068	     -0.01839251	      1.00559969	      0.60488910	     24.10128973	      1.74546939	    -10.64100636	    -19.77460230	      4.65115464	      3.58392211	     -1.47689087	     -0.18791984	     -7.26571296	    -18.86135053	     18.54658047	     -2.49106620	    -15.36458507	      1.11319831	     -2.23049930
      4.49000000	     -1.05111805	     -3.02239753	    -78.46543035	     -0.01674946	      1.00495947	      0.61153574	     24.00892133	      1.80639507	    -10.93792092	    -18.52224674	      4.32858565	      3.77988815	     -2.04123113	     -0.19775207	     -7.34441642	    -18.75579265	     18.81725687	     -2.42460906	    -15.42039451	      1.17283689	     -2.33491443
      4.50000000	     -1.03786054	     -3.11219900	    -78.47853416	     -0.01512403	      1.00430335	      0.61832857	     23.85725714	      1.85892067	    -11.15937976	    -17.32184035	      4.08773561	      3.99749027	     -2.64700811	     -0.18504705	     -7.43699189	    -18.64263122	     19.07529877	     -2.33819654	    -15.48483786	      1.21326834	     -2.41087632
      4.51000000	     -1.00398466	     -3.20424401	    -78.50817477	     -0.01355621	      1.00359677	      0.62525231	     23.67150671	      1.90572862	    -11.28699143	    -16.18994481	      3.95061158	      4.23726622	     -3.27175531	     -0.15326682	     -7.54247108	    -18.52446088	     19.32601153	     -2.23201879	    -15.54045833	      1.22593272	     -2.46934416
      4.52000000	     -0.95293051	     -3.29889657	    -78.54927958	     -0.01205951	      1.00283326	      0.63229661	     23.45666679	      1.94816739	    -11.33073251	    -15.14622837	      3.93390947	      4.50165200	     -3.90472703	     -0.10836901	     -7.65809049	    -18.41840603	     19.57068895	     -2.10585091	    -15.58868748	      1.21607612	     -2.51049168
      4.53000000	     -0.88379582	     -3.39156210	    -78.59281053	     -0.01063633	      1.00200155	      0.63945609	     23.22507431	      1.97869092	    -11.31129606	    -14.21490598	      4.04098272	      4.78645047	     -4.53608689	     -0.05161023	     -7.78274485	    -18.33234694	     19.80045263	     -1.95735203	    -15.62276119	      1.18278472	     -2.54830571
      4.54000000	     -0.80354824	     -3.47426804	    -78.63184721	     -0.00928406	      1.00108818	      0.64671273	     22.99123609	      1.99830976	    -11.25243122	    -13.41310714	      4.22551859	      5.06824917	     -5.14846967	      0.01069107	     -7.90231851	    -18.27614241	     20.02768599	     -1.79608111	    -15.63560811	      1.13270687	     -2.59045198
      4.55000000	     -0.71374250	     -3.55231126	    -78.65820244	     -0.00800358	      1.00010702	      0.65406930	     22.75178726	      2.00684749	    -11.17137049	    -12.75452985	      4.44815603	      5.32999236	     -5.74175393	      0.07315826	     -8.00203651	    -18.26044682	     20.24642010	     -1.61831756	    -15.63097839	      1.06936820	     -2.64278477
      4.56000000	     -0.61940173	     -3.62412863	    -78.66892466	     -0.00678713	      0.99906326	      0.66152380	     22.51292440	      2.00648131	    -11.08979676	    -12.25207253	      4.65516144	      5.54167360	     -6.31015917	      0.13085127	     -8.07654965	    -18.29001640	     20.46400022	     -1.42987007	    -15.60671425	      1.00010515	     -2.70340452
      4.57000000	     -0.53252987	     -3.69518203	    -78.65946537	     -0.00562702	      0.99798292	      0.66907855	     22.27195771	      2.00804048	    -11.01510627	    -11.91043674	      4.77588963	      5.68973841	     -6.85493617	      0.16792538	     -8.12279736	    -18.36843944	     20.67174017	     -1.22384384	    -15.56479203	      0.94333075	     -2.78336269
      4.58000000	     -0.46344719	     -3.77434168	    -78.63299835	     -0.00454404	      0.99689876	      0.67674438	     22.02518328	      2.02380994	    -10.96556329	    -11.73314227	      4.74922764	      5.75693917	     -7.38346778	      0.16965627	     -8.14324077	    -18.49839479	     20.86774281	     -0.98804040	    -15.51393555	      0.90464730	     -2.86807643
      4.59000000	     -0.42211753	     -3.84169995	    -78.59034428	     -0.00351493	      0.99579936	      0.68450738	     21.80107395	      2.05576431	    -10.94443316	    -11.72022026	      4.51425260	      5.71456885	     -7.86636223	      0.13220375	     -8.13242018	    -18.68787719	     21.05033004	     -0.75129724	    -15.42726601	      0.89813854	     -2.95569039
      4.60000000	     -0.40292296	     -3.92519864	    -78.54614985	     -0.00254572	      0.99474962	      0.69237754	     21.58257746	      2.10266868	    -10.97281899	    -11.88151270	      4.06082462	      5.53133035	     -8.33754865	      0.05553213	     -8.12655817	    -18.93392925	     21.21631540	     -0.47144284	    -15.34089188	      0.92335381	     -3.03311245
      4.61000000	     -0.43066286	     -4.00492658	    -78.50213068	     -0.00163339	      0.99374496	      0.70035805	     21.39078770	      2.18510288	    -11.05153821	    -12.17982294	      3.32703534	      5.19860387	     -8.77004600	     -0.07548726	     -8.07865427	    -19.23979619	     21.35542606	     -0.18508092	    -15.22279745	      1.00195756	     -3.08603852
      4.62000000	     -0.49559883	     -4.08892860	    -78.46880538	     -0.00078309	      0.99283665	      0.70846313	     21.22555552	      2.29451282	    -11.19133306	    -12.60782697	      2.33634619	      4.67298815	     -9.18021222	     -0.25108174	     -8.01808932	    -19.59312317	     21.44927851	      0.13061833	    -15.08258269	      1.12242889	     -3.12006685
      4.63000000	     -0.60438246	     -4.17836860	    -78.45357939	      0.00000998	      0.99204645	      0.71665768	     21.10174497	      2.43361614	    -11.39934513	    -13.16709059	      1.15925817	      3.97524928	     -9.55073642	     -0.47526176	     -7.94428331	    -20.02330249	     21.49065605	      0.45972206	    -14.92675689	      1.29287353	     -3.11481810
